<svg version="1.1" viewBox="0 0 24 24" xmlns="http://www.w3.org/2000/svg">
 <path transform="matrix(.88743 0 0 1.0058 1.9543 1.1911)" d="m9.4835 13.6c0.43654 1.3453 1.4929 5.1141 3.5893 7.6696s9.55 1.164 9.5156-0.50668c-0.01021-1.565-2.6753-1.5586-2.702 0.16119-1.8917 0.72423-2.0958 0.33734-3.8218-2.3188s-2.7013-6.131-2.9712-6.9366c-0.26985-0.80558-4.0464 0.58602-3.6099 1.9313zm3.673-1.7313c-0.43654-1.3453-1.4929-5.1141-3.5893-7.6696s-9.55-1.164-9.5156 0.50668c0.01021 1.565 2.6753 1.5586 2.702-0.16119 1.8917-0.72423 2.0958-0.33734 3.8218 2.3188s2.7013 6.131 2.9712 6.9366c0.26985 0.80558 4.0464-0.58602 3.6099-1.9313z" stroke-linecap="round" stroke-width="1.0457"/>
 <path transform="matrix(.70156 0 0 1.021 3.7426 1.6769)" d="m17.716 5.4511c-1.819 1.7672-4.0373 3.9678-6.2639 6.1987l0.63445 0.84065c2.2246-2.229 4.4735-4.4629 6.2854-6.2232 0.90597-0.88014 4.4544 2.0244 6.755-0.19223 2.3005-2.2167-0.2611-3.7997-2.7572-3.7997-1.6229 0-3.7685 2.3177-4.6538 3.1757zm-11.891 13.238c1.819-1.7672 4.0373-3.9678 6.2639-6.1987l-0.63445-0.84065c-2.2246 2.229-4.4735 4.4629-6.2854 6.2232-0.90597 0.88014-4.4544-2.0244-6.755 0.19223-2.3005 2.2167 0.2611 3.7997 2.7572 3.7997 1.6229 0 3.7685-2.3177 4.6538-3.1757z" color="#000000" color-rendering="auto" dominant-baseline="auto" image-rendering="auto" shape-rendering="auto" solid-color="#000000" stop-color="#000000" style="font-feature-settings:normal;font-variant-alternates:normal;font-variant-caps:normal;font-variant-east-asian:normal;font-variant-ligatures:normal;font-variant-numeric:normal;font-variant-position:normal;font-variation-settings:normal;inline-size:0;isolation:auto;mix-blend-mode:normal;shape-margin:0;shape-padding:0;text-decoration-color:#000000;text-decoration-line:none;text-decoration-style:solid;text-indent:0;text-orientation:mixed;text-transform:none;white-space:normal"/>
 <path d="m2.7496 0.74963h18.5" fill="none" class="stroke" stroke-linecap="round" stroke-width="1.5"/>
</svg>
